{
  "asset": {
    "version": "2.0",
    "generator": "THREE.GLTFExporter"
  },
  "scenes": [
    {
      "nodes": [
        0
      ]
    }
  ],
  "scene": 0,
  "nodes": [
    {
      "children": [
        6
      ],
      "matrix": [
        0.01,
        0,
        0,
        0,
        0,
        0.01,
        0,
        0,
        0,
        0,
        0.01,
        0,
        0,
        0,
        0,
        1
      ]
    },
    {
      "name": "EYES",
      "mesh": 0
    },
    {
      "name": "FACE",
      "mesh": 1
    },
    {
      "matrix": [
        1,
        0,
        0,
        0,
        0,
        1,
        0,
        0,
        0,
        0,
        1,
        0,
        -34,
        0,
        163.22195963542845,
        1
      ],
      "name": "uploads_files_3391879_OBJ+squid+games",
      "children": [
        1,
        2
      ]
    },
    {
      "matrix": [
        1,
        0,
        0,
        0,
        0,
        1,
        -6.267839113032822e-17,
        0,
        0,
        6.267839113032822e-17,
        1,
        0,
        -34.34778095355081,
        -52.12564900693192,
        1349.354906947583,
        1
      ],
      "name": "Personal Camera",
      "camera": 0
    },
    {
      "matrix": [
        1,
        0,
        0,
        0,
        0,
        1,
        0,
        0,
        0,
        0,
        1,
        0,
        0,
        1,
        0,
        1
      ],
      "name": "Default Ambient Light"
    },
    {
      "name": "Scene 1",
      "children": [
        3,
        4,
        5
      ]
    }
  ],
  "bufferViews": [
    {
      "buffer": 0,
      "byteOffset": 0,
      "byteLength": 13824,
      "target": 34962,
      "byteStride": 12
    },
    {
      "buffer": 0,
      "byteOffset": 13824,
      "byteLength": 13824,
      "target": 34962,
      "byteStride": 12
    },
    {
      "buffer": 0,
      "byteOffset": 27648,
      "byteLength": 9216,
      "target": 34962,
      "byteStride": 8
    },
    {
      "buffer": 0,
      "byteOffset": 36864,
      "byteLength": 103320,
      "target": 34962,
      "byteStride": 12
    },
    {
      "buffer": 0,
      "byteOffset": 140184,
      "byteLength": 103320,
      "target": 34962,
      "byteStride": 12
    },
    {
      "buffer": 0,
      "byteOffset": 243504,
      "byteLength": 68880,
      "target": 34962,
      "byteStride": 8
    }
  ],
  "buffers": [
    {
      "byteLength": 312384,
      "uri": "data:application/octet-stream;base64,"
    }
  ],
  "accessors": [
    {
      "bufferView": 0,
      "componentType": 5126,
      "count": 1152,
      "max": [
        203.12562561035156,
        98.46257019042969,
        97.4585189819336
      ],
      "min": [
        -203.12562561035156,
        40.44581985473633,
        37.86613082885742
      ],
      "type": "VEC3"
    },
    {
      "bufferView": 1,
      "componentType": 5126,
      "count": 1152,
      "max": [
        0.7795438766479492,
        0.9960654973983765,
        0.9837146997451782
      ],
      "min": [
        -0.7795438766479492,
        -0.999871551990509,
        -0.29642391204833984
      ],
      "type": "VEC3"
    },
    {
      "bufferView": 2,
      "componentType": 5126,
      "count": 1152,
      "max": [
        1,
        1
      ],
      "min": [
        0,
        0
      ],
      "type": "VEC2"
    },
    {
      "bufferView": 3,
      "componentType": 5126,
      "count": 8610,
      "max": [
        264.4139709472656,
        341.2621154785156,
        209.27157592773438
      ],
      "min": [
        -264.4139709472656,
        -334.6488342285156,
        -96.68968963623047
      ],
      "type": "VEC3"
    },
    {
      "bufferView": 4,
      "componentType": 5126,
      "count": 8610,
      "max": [
        0.985011637210846,
        0.9970229268074036,
        0.9993762373924255
      ],
      "min": [
        -0.985011637210846,
        -0.9948456287384033,
        -0.9935898780822754
      ],
      "type": "VEC3"
    },
    {
      "bufferView": 5,
      "componentType": 5126,
      "count": 8610,
      "max": [
        1,
        1.0003771781921387
      ],
      "min": [
        0,
        0
      ],
      "type": "VEC2"
    }
  ],
  "meshes": [
    {
      "primitives": [
        {
          "mode": 4,
          "attributes": {
            "POSITION": 0,
            "NORMAL": 1,
            "TEXCOORD_0": 2
          },
          "extras": {
            "parameters": {
              "width": 406.2512512207031,
              "height": 58.01675033569336,
              "depth": 59.59238815307617,
              "subdivisions": 0
            },
            "type": "NonParametricGeometry"
          }
        }
      ]
    },
    {
      "primitives": [
        {
          "mode": 4,
          "attributes": {
            "POSITION": 3,
            "NORMAL": 4,
            "TEXCOORD_0": 5
          },
          "extras": {
            "parameters": {
              "width": 528.8279418945312,
              "height": 675.9109497070312,
              "depth": 305.96126556396484,
              "subdivisions": 0
            },
            "type": "NonParametricGeometry"
          }
        }
      ]
    }
  ],
  "cameras": [
    {
      "type": "orthographic",
      "orthographic": {
        "xmag": 7.640000000000001,
        "ymag": 3.6900000000000004,
        "zfar": 100000,
        "znear": 0
      },
      "name": "Camera"
    }
  ]
}